<svg width="13" height="16" viewBox="0 0 13 16" fill="none" xmlns="http://www.w3.org/2000/svg">
<g id="arrow-right" clip-path="url(#clip0_11_6315)">
<path id="Vector" d="M5.5279 2.46002L6.1721 1.80963C6.44487 1.53424 6.88594 1.53424 7.1558 1.80963L12.7969 7.50201C13.0696 7.77741 13.0696 8.22272 12.7969 8.49518L7.1558 14.1905C6.88304 14.4659 6.44196 14.4659 6.1721 14.1905L5.5279 13.5401C5.25223 13.2618 5.25804 12.8077 5.53951 12.5352L9.03616 9.17194H0.696429C0.310491 9.17194 0 8.85846 0 8.46881V7.53131C0 7.14166 0.310491 6.82819 0.696429 6.82819H9.03616L5.53951 3.4649C5.25513 3.19244 5.24933 2.73834 5.5279 2.46002Z" fill="white"/>
</g>
<defs>
<clipPath id="clip0_11_6315">
<rect width="13" height="15" fill="white" transform="translate(0 0.5)"/>
</clipPath>
</defs>
</svg>
