<svg width="18" height="19" viewBox="0 0 18 19" fill="none" xmlns="http://www.w3.org/2000/svg">
<rect y="0.749023" width="18" height="18" rx="9" fill="#0066FF"/>
<path d="M9.00305 5.03738V5.64612C9.00305 6.16994 8.90496 6.25486 8.56674 6.43901L5.41553 8.03877V8.10959L8.55244 9.68115C8.90496 9.86509 9.00305 9.93601 9.00305 10.474V11.1535C9.00305 11.5782 8.86204 11.7198 8.49624 11.5217L3.75511 8.91647C3.47412 8.76084 3.375 8.64751 3.375 8.32204V7.86893C3.375 7.54326 3.47412 7.41583 3.75511 7.26019L8.49624 4.6692C8.86204 4.47105 9.00305 4.61258 9.00305 5.03738Z" fill="white"/>
<path d="M9.50376 7.2763L14.2306 9.86719C14.5259 10.0229 14.625 10.1362 14.625 10.4617V10.9148C14.625 11.2546 14.5259 11.3678 14.2306 11.5236L9.50376 14.1145C9.12365 14.3127 8.99695 14.1712 8.99695 13.7464V13.1376C8.99695 12.6138 9.09504 12.5288 9.43326 12.359L12.5845 10.7591V10.6742L9.44756 9.10262C9.09504 8.93278 8.99695 8.84776 8.99695 8.30973V7.63018C8.99695 7.20538 9.12365 7.06395 9.50376 7.2763Z" fill="white"/>
</svg>
