<svg width="16" height="17" viewBox="0 0 16 17" fill="none" xmlns="http://www.w3.org/2000/svg">
<path d="M12.4437 5.43945V4.43945C12.4437 2.23383 10.5639 0.439453 8.25326 0.439453C5.9426 0.439453 4.06278 2.23383 4.06278 4.43945V5.43945H0.919922V13.9395C0.919922 15.3202 2.0925 16.4395 3.53897 16.4395H12.9675C14.414 16.4395 15.5866 15.3202 15.5866 13.9395V5.43945H12.4437ZM6.15802 4.43945C6.15802 3.33664 7.09793 2.43945 8.25326 2.43945C9.40858 2.43945 10.3485 3.33664 10.3485 4.43945V5.43945H6.15802V4.43945ZM11.3961 8.18945C10.9622 8.18945 10.6104 7.85367 10.6104 7.43945C10.6104 7.02523 10.9622 6.68945 11.3961 6.68945C11.8301 6.68945 12.1818 7.02523 12.1818 7.43945C12.1818 7.85367 11.8301 8.18945 11.3961 8.18945ZM5.1104 8.18945C4.67645 8.18945 4.32468 7.85367 4.32468 7.43945C4.32468 7.02523 4.67645 6.68945 5.1104 6.68945C5.54434 6.68945 5.89611 7.02523 5.89611 7.43945C5.89611 7.85367 5.54434 8.18945 5.1104 8.18945Z" fill="#682EE6"/>
</svg>
