<svg width="19" height="19" viewBox="0 0 19 19" fill="none" xmlns="http://www.w3.org/2000/svg">
<path d="M9.03433 0.840034L1.98087 3.53101C1.34673 3.77251 0.926239 4.39351 0.926239 5.0835V12.8494C0.926239 13.4773 1.27552 14.05 1.82488 14.3294L8.87834 17.9174C9.33613 18.152 9.87531 18.152 10.3331 17.9174L17.3866 14.3294C17.9393 14.05 18.2852 13.4738 18.2852 12.8494V5.0835C18.2852 4.39351 17.8647 3.77596 17.2306 3.53446L10.1771 0.843484C9.81088 0.698585 9.40395 0.698585 9.03433 0.840034ZM9.60742 2.98247L16.1183 5.46645V5.5044L9.60742 8.19537L3.09653 5.5044V5.46645L9.60742 2.98247ZM10.6926 15.2644V10.1274L16.1183 7.88488V12.5044L10.6926 15.2644Z" fill="#0066FF"/>
</svg>
