<svg width="17" height="16" viewBox="0 0 17 16" fill="none" xmlns="http://www.w3.org/2000/svg">
<path d="M14.7219 9.81796C14.7219 9.81796 12.9441 12.4501 12.9441 13.4543C12.9441 14.4586 13.7402 15.2725 14.7219 15.2725C15.7036 15.2725 16.4997 14.4586 16.4997 13.4543C16.4997 12.4501 14.7219 9.81796 14.7219 9.81796ZM14.4616 6.89353L8.69244 0.993244C8.51883 0.815687 8.29133 0.727051 8.06383 0.727051C7.83632 0.727051 7.60882 0.815687 7.43549 0.993244L5.16937 3.31086L2.77547 0.862278C2.60186 0.684721 2.32047 0.684721 2.14713 0.862278L1.5188 1.50489C1.34546 1.68245 1.34546 1.97023 1.5188 2.14751L3.91297 4.5958L1.28074 7.28785C0.239346 8.35262 0.239346 10.0793 1.28074 11.1444L4.53603 14.4736C5.05659 15.006 5.73909 15.2725 6.42132 15.2725C7.10382 15.2725 7.78605 15.0063 8.3066 14.4736L14.4614 8.17904C14.8086 7.82393 14.8086 7.24864 14.4616 6.89353ZM11.2333 8.90972H2.33102C2.3688 8.80063 2.43019 8.68302 2.53741 8.57364L2.90269 8.20006L5.16965 5.8816L6.79743 7.54637C7.14438 7.9012 7.70716 7.9012 8.0541 7.54637C8.40105 7.19154 8.40105 6.61597 8.0541 6.26114L6.42632 4.59637L8.06383 2.92165L12.5761 7.53643L11.2333 8.90972Z" fill="#0066FF"/>
</svg>
