<svg width="16" height="16" viewBox="0 0 16 16" fill="none" xmlns="http://www.w3.org/2000/svg">
<g clip-path="url(#clip0_11_7374)">
<path d="M9.25031 0.997559H15.2503C15.6645 0.997559 16.0003 1.33334 16.0003 1.74756V6.74756C16.0003 7.16178 15.6645 7.49756 15.2503 7.49756H9.25031C8.83609 7.49756 8.50031 7.16178 8.50031 6.74756V1.74756C8.50031 1.33334 8.83609 0.997559 9.25031 0.997559ZM6.75031 0.997559H0.750305C0.336086 0.997559 0.000305176 1.33334 0.000305176 1.74756V6.74756C0.000305176 7.16178 0.336086 7.49756 0.750305 7.49756H6.75031C7.16452 7.49756 7.50031 7.16178 7.50031 6.74756V1.74756C7.50031 1.33334 7.16452 0.997559 6.75031 0.997559ZM0.000305176 9.24756V14.2476C0.000305176 14.6618 0.336086 14.9976 0.750305 14.9976H6.75031C7.16452 14.9976 7.50031 14.6618 7.50031 14.2476V9.24756C7.50031 8.83334 7.16452 8.49756 6.75031 8.49756H0.750305C0.336086 8.49756 0.000305176 8.83334 0.000305176 9.24756ZM9.25031 14.9976H15.2503C15.6645 14.9976 16.0003 14.6618 16.0003 14.2476V9.24756C16.0003 8.83334 15.6645 8.49756 15.2503 8.49756H9.25031C8.83609 8.49756 8.50031 8.83334 8.50031 9.24756V14.2476C8.50031 14.6618 8.83609 14.9976 9.25031 14.9976Z" fill="black"/>
</g>
<defs>
<clipPath id="clip0_11_7374">
<rect width="16" height="16" fill="white"/>
</clipPath>
</defs>
</svg>
