<svg width="17" height="17" viewBox="0 0 17 17" fill="none" xmlns="http://www.w3.org/2000/svg">
<g clip-path="url(#clip0_11_9474)">
<path d="M3.87016 10.1323L3.31322 12.2114L1.27762 12.2545C0.669281 11.1261 0.324219 9.83518 0.324219 8.46331C0.324219 7.13671 0.646844 5.88571 1.21872 4.78418H1.21916L3.03141 5.11643L3.82528 6.91781C3.65912 7.40221 3.56856 7.92221 3.56856 8.46331C3.56862 9.05056 3.675 9.61321 3.87016 10.1323Z" fill="#FBBB00"/>
<path d="M16.1845 6.96875C16.2763 7.45269 16.3243 7.95247 16.3243 8.46325C16.3243 9.036 16.264 9.59469 16.1493 10.1336C15.7599 11.9674 14.7423 13.5688 13.3326 14.7019L13.3322 14.7015L11.0496 14.585L10.7265 12.5683C11.6619 12.0198 12.3929 11.1613 12.7779 10.1336H8.50012V6.96875H12.8403H16.1845Z" fill="#518EF8"/>
<path d="M13.3339 14.7011L13.3344 14.7015C11.9634 15.8035 10.2218 16.4628 8.32601 16.4628C5.27942 16.4628 2.63064 14.76 1.27942 12.254L3.87195 10.1318C4.54754 11.9349 6.28689 13.2184 8.32601 13.2184C9.20248 13.2184 10.0236 12.9815 10.7282 12.5679L13.3339 14.7011Z" fill="#28B446"/>
<path d="M13.4331 2.30464L10.8414 4.42639C10.1122 3.97058 9.25019 3.70727 8.32669 3.70727C6.24141 3.70727 4.46953 5.04967 3.82778 6.91739L1.22163 4.78377H1.22119C2.55263 2.21673 5.23482 0.462891 8.32669 0.462891C10.2678 0.462891 12.0476 1.15433 13.4331 2.30464Z" fill="#F14336"/>
</g>
<defs>
<clipPath id="clip0_11_9474">
<rect width="16" height="16" fill="white" transform="translate(0.324219 0.462891)"/>
</clipPath>
</defs>
</svg>
