<svg width="40" height="40" viewBox="0 0 40 40" fill="none" xmlns="http://www.w3.org/2000/svg">
<rect width="40" height="40" rx="6.66667" fill="black"/>
<path d="M19.659 11.5039V12.6207C19.659 13.5818 19.479 13.7376 18.8585 14.0754L13.077 17.0104V17.1404L18.8323 20.0237C19.479 20.3611 19.659 20.4913 19.659 21.4784V22.7249C19.659 23.5041 19.4003 23.764 18.7291 23.4004L10.0307 18.6207C9.51519 18.3352 9.33334 18.1273 9.33334 17.5302V16.6989C9.33334 16.1013 9.51519 15.8676 10.0307 15.582L18.7291 10.8284C19.4003 10.4648 19.659 10.7245 19.659 11.5039Z" fill="white"/>
<path d="M20.5776 15.6115L29.2498 20.3649C29.7915 20.6507 29.9734 20.8584 29.9734 21.4557V22.287C29.9734 22.9104 29.7915 23.1181 29.2498 23.4039L20.5776 28.1573C19.8802 28.521 19.6477 28.2614 19.6477 27.482V26.3652C19.6477 25.4041 19.8277 25.2481 20.4482 24.9365L26.2297 22.0013V21.8455L20.4745 18.9622C19.8277 18.6506 19.6477 18.4946 19.6477 17.5075V16.2608C19.6477 15.4814 19.8802 15.2219 20.5776 15.6115Z" fill="white"/>
</svg>
