<svg width="23" height="23" viewBox="0 0 23 23" fill="none" xmlns="http://www.w3.org/2000/svg">
<g clip-path="url(#clip0_11_8062)">
<path d="M0.126831 19.5342C0.12788 20.5644 0.953623 21.3993 1.9723 21.4006H20.427C21.4457 21.3993 22.2714 20.5644 22.2725 19.5342V7.375H0.126831V19.5342ZM13.446 11.9688C13.2812 11.827 13.2617 11.5771 13.4018 11.4105C13.5418 11.2441 13.7889 11.224 13.9537 11.3659L16.4865 13.5472C16.5739 13.6227 16.6242 13.7328 16.6242 13.8489C16.6242 13.9649 16.5739 14.0751 16.4865 14.1503L13.9537 16.3316C13.7889 16.4735 13.5418 16.4533 13.4018 16.287C13.2617 16.1205 13.2812 15.8708 13.446 15.7289L15.6288 13.8489L13.446 11.9688ZM9.91936 17.5846L11.4981 10.0043C11.5425 9.7903 11.7503 9.65333 11.9618 9.6984C12.1734 9.74347 12.3087 9.95361 12.2641 10.1675L10.6855 17.7479C10.6408 17.962 10.4333 18.0988 10.2217 18.0537C10.0102 18.0086 9.8748 17.7987 9.91936 17.5846ZM5.9128 13.5472L8.44561 11.3659C8.6104 11.224 8.85752 11.2441 8.9975 11.4105C9.13766 11.5771 9.11808 11.827 8.95328 11.9688L6.77053 13.8489L8.95363 15.7289C9.11808 15.8708 9.13783 16.1205 8.99767 16.287C8.85769 16.4533 8.6104 16.4735 8.44578 16.3316L5.91298 14.1503C5.8256 14.0751 5.77526 13.9649 5.77526 13.8489C5.77526 13.7328 5.8256 13.6227 5.91298 13.5472H5.9128Z" fill="#0066FF"/>
<path d="M20.427 2.20752H1.9723C0.953623 2.20851 0.12788 2.9862 0.126831 3.9456V6.63665H22.2725V3.9456C22.2714 2.9862 21.4457 2.20851 20.427 2.20752ZM2.22605 5.59841H2.22221C1.53732 5.59743 0.982983 5.07386 0.983507 4.42883C0.984031 3.7838 1.53925 3.26123 2.22413 3.26123C2.90919 3.26123 3.46458 3.7838 3.46493 4.42883C3.46563 5.07386 2.91112 5.59743 2.22605 5.59841ZM7.27121 4.44644C7.26842 5.08917 6.7146 5.60895 6.03234 5.6096H6.02849C5.35234 5.59825 4.81076 5.07814 4.81199 4.44118C4.81286 3.80438 5.35601 3.28592 6.03216 3.27653H6.03636C6.72019 3.27917 7.27261 3.80273 7.27121 4.44677V4.44644ZM11.0775 4.4578C11.0754 5.10053 10.5216 5.62063 9.83897 5.6208H9.83513C9.15408 5.61569 8.60534 5.09378 8.60621 4.4522C8.60726 3.8108 9.1581 3.29052 9.83914 3.2874H9.84281C10.5268 3.29003 11.0792 3.81359 11.0777 4.4578H11.0775Z" fill="#0066FF"/>
<rect x="0.865051" y="2.9458" width="11.811" height="3.69094" fill="#0066FF"/>
</g>
<defs>
<clipPath id="clip0_11_8062">
<rect width="22.1456" height="22.1456" fill="white" transform="translate(0.127258 0.730957)"/>
</clipPath>
</defs>
</svg>
