<svg width="17" height="17" viewBox="0 0 17 17" fill="none" xmlns="http://www.w3.org/2000/svg">
<path d="M15.9077 1.0373C15.8876 0.943789 15.8409 0.858062 15.7733 0.790429C15.7057 0.722795 15.62 0.676135 15.5264 0.656055C14.5202 0.44043 13.733 0.44043 12.9486 0.44043C9.72362 0.44043 7.78925 2.16543 6.34581 4.44043H3.08956C2.81147 4.44066 2.53891 4.5182 2.30234 4.66438C2.06577 4.81057 1.87449 5.01964 1.74987 5.26824L0.205497 8.35574C0.148464 8.47012 0.121604 8.59717 0.127468 8.72484C0.133332 8.85251 0.171725 8.97657 0.239003 9.08523C0.306281 9.1939 0.400212 9.28357 0.511881 9.34573C0.623551 9.4079 0.749254 9.44049 0.87706 9.44043H4.11987L3.41768 10.1426C3.23019 10.3301 3.12487 10.5845 3.12487 10.8496C3.12487 11.1148 3.23019 11.3691 3.41768 11.5567L5.00831 13.1476C5.10117 13.2405 5.21142 13.3142 5.33276 13.3644C5.4541 13.4147 5.58416 13.4406 5.7155 13.4406C5.84684 13.4406 5.97689 13.4147 6.09823 13.3644C6.21957 13.3142 6.32982 13.2405 6.42268 13.1476L7.12487 12.4454V15.6904C7.12483 15.8182 7.15743 15.9438 7.21958 16.0555C7.28173 16.1671 7.37137 16.261 7.47999 16.3283C7.58861 16.3955 7.71261 16.434 7.84024 16.4399C7.96786 16.4458 8.09488 16.419 8.20925 16.362L11.2936 14.8186C11.5426 14.6942 11.752 14.5028 11.8983 14.266C12.0446 14.0292 12.122 13.7563 12.1217 13.4779V10.2151C14.3902 8.76824 16.1217 6.82762 16.1217 3.61855C16.1249 2.83105 16.1249 2.04355 15.9077 1.0373ZM12.1249 5.69043C11.8776 5.69043 11.636 5.61712 11.4304 5.47977C11.2248 5.34241 11.0646 5.14719 10.97 4.91878C10.8754 4.69038 10.8507 4.43904 10.8989 4.19657C10.9471 3.95409 11.0662 3.73136 11.241 3.55655C11.4158 3.38173 11.6385 3.26268 11.881 3.21445C12.1235 3.16622 12.3748 3.19097 12.6032 3.28558C12.8316 3.38019 13.0269 3.54041 13.1642 3.74597C13.3016 3.95153 13.3749 4.1932 13.3749 4.44043C13.3749 4.77195 13.2432 5.08989 13.0088 5.32431C12.7743 5.55873 12.4564 5.69043 12.1249 5.69043Z" fill="#682EE6"/>
</svg>
