<svg width="17" height="13" viewBox="0 0 17 13" fill="none" xmlns="http://www.w3.org/2000/svg">
<path d="M16.2812 10.4346H2.78125V0.93457C2.78125 0.65832 2.5575 0.43457 2.28125 0.43457H1.28125C1.005 0.43457 0.78125 0.65832 0.78125 0.93457V11.4346C0.78125 11.9868 1.22906 12.4346 1.78125 12.4346H16.2812C16.5575 12.4346 16.7812 12.2108 16.7812 11.9346V10.9346C16.7812 10.6583 16.5575 10.4346 16.2812 10.4346ZM15.2812 1.43457H11.5919C10.9237 1.43457 10.5891 2.24238 11.0616 2.71488L12.0741 3.72738L9.78125 6.02051L7.48844 3.7277C7.09781 3.33707 6.46469 3.33707 6.07438 3.7277L3.92781 5.87426C3.7325 6.06957 3.7325 6.38613 3.92781 6.58145L4.63469 7.28832C4.83 7.48363 5.14656 7.48363 5.34188 7.28832L6.78125 5.84863L9.07406 8.14145C9.46469 8.53207 10.0978 8.53207 10.4881 8.14145L13.4881 5.14145L14.5006 6.15395C14.9731 6.62645 15.7809 6.29176 15.7809 5.62363V1.93457C15.7812 1.65832 15.5575 1.43457 15.2812 1.43457Z" fill="#682EE6"/>
</svg>
