<svg width="23" height="23" viewBox="0 0 23 23" fill="none" xmlns="http://www.w3.org/2000/svg">
<g clip-path="url(#clip0_11_8052)">
<path d="M18.2283 4.43254C18.2126 4.32305 18.1188 4.26048 18.0406 4.26048C17.9624 4.26048 16.4139 4.2292 16.4139 4.2292C16.4139 4.2292 15.1156 2.97788 14.9905 2.83711C14.8654 2.71198 14.6151 2.74326 14.5213 2.77454C14.5213 2.77454 14.271 2.85275 13.8643 2.97788C13.8018 2.7589 13.6923 2.493 13.5515 2.21145C13.0979 1.33553 12.4097 0.86629 11.5963 0.86629C11.5337 0.86629 11.4868 0.86629 11.4243 0.881931C11.393 0.850649 11.3773 0.819366 11.346 0.803724C10.9863 0.42833 10.5327 0.240633 9.98524 0.256274C8.93727 0.287557 7.88929 1.05399 7.02901 2.39915C6.43464 3.35328 5.98104 4.54203 5.84026 5.46487C4.63587 5.84026 3.79124 6.10617 3.75995 6.10617C3.14994 6.29386 3.1343 6.30951 3.05609 6.88824C3.02481 7.3262 1.42938 19.6673 1.42938 19.6673L14.8184 21.9822L20.6214 20.5432C20.6058 20.5432 18.2439 4.54203 18.2283 4.43254ZM13.1917 3.19686C12.8789 3.29071 12.5348 3.4002 12.1594 3.52533C12.1594 2.99352 12.0812 2.24274 11.8466 1.61708C12.6443 1.74221 13.0353 2.64941 13.1917 3.19686ZM11.4555 3.72867C10.7517 3.94765 9.98524 4.18227 9.21881 4.41689C9.43779 3.5879 9.84447 2.77454 10.345 2.22709C10.5327 2.02376 10.7986 1.80478 11.0958 1.67964C11.4086 2.28966 11.4712 3.14994 11.4555 3.72867ZM10.0165 0.960139C10.2668 0.960139 10.4701 1.00706 10.6422 1.13219C10.3606 1.27297 10.0791 1.49195 9.82883 1.77349C9.15625 2.493 8.64008 3.60354 8.43674 4.6828C7.79544 4.88614 7.16979 5.07383 6.60669 5.24589C6.98209 3.54097 8.40546 1.00706 10.0165 0.960139Z" fill="#9CA0AC"/>
<path d="M18.0407 4.26085C17.9625 4.26085 16.414 4.22957 16.414 4.22957C16.414 4.22957 15.1157 2.97826 14.9906 2.83748C14.9437 2.79056 14.8811 2.75928 14.8185 2.75928V21.9826L20.6215 20.5436C20.6215 20.5436 18.2597 4.5424 18.244 4.43291C18.2127 4.32342 18.1189 4.26085 18.0407 4.26085Z" fill="#9CA0AC"/>
<path d="M11.5964 7.24821L10.9238 9.76648C10.9238 9.76648 10.173 9.42236 9.28148 9.48493C7.9676 9.56314 7.9676 10.3921 7.9676 10.5955C8.04581 11.7217 11.002 11.9719 11.1741 14.6153C11.2992 16.6956 10.0792 18.119 8.29607 18.2285C6.16883 18.338 4.99573 17.0867 4.99573 17.0867L5.44933 15.1628C5.44933 15.1628 6.63808 16.0543 7.57656 15.9918C8.18658 15.9605 8.4212 15.4443 8.38992 15.1002C8.29607 13.6299 5.88729 13.7238 5.73087 11.2993C5.60574 9.26595 6.93526 7.21692 9.87585 7.02923C11.0177 6.95102 11.5964 7.24821 11.5964 7.24821Z" fill="#EFF1F7"/>
</g>
<defs>
<clipPath id="clip0_11_8052">
<rect width="22.1456" height="22.1456" fill="white" transform="translate(0.321655 0.255371)"/>
</clipPath>
</defs>
</svg>
