<svg width="51" height="52" viewBox="0 0 51 52" fill="none" xmlns="http://www.w3.org/2000/svg">
<rect y="0.675781" width="50.5" height="50.5" rx="3.75" fill="#0066FF"/>
<g clip-path="url(#clip0_11_9240)">
<path d="M23.452 38.628L20.7835 37.748C20.5035 37.6585 20.346 37.3253 20.4248 37.0071L26.3962 13.629C26.4749 13.3107 26.768 13.1318 27.048 13.2213L29.7165 14.1013C29.9965 14.1908 30.154 14.5239 30.0752 14.8421L24.1038 38.2203C24.0207 38.5385 23.732 38.7225 23.452 38.628ZM18.4649 33.0494L20.3679 30.7425C20.5691 30.4988 20.556 30.111 20.3329 29.8873L16.3694 25.9246L20.3329 21.962C20.556 21.7382 20.5735 21.3504 20.3679 21.1068L18.4649 18.7998C18.268 18.5611 17.9356 18.5462 17.7212 18.7749L11.4173 25.4871C11.1942 25.7208 11.1942 26.1235 11.4173 26.3572L17.7212 33.0743C17.9356 33.303 18.268 33.2931 18.4649 33.0494ZM32.7788 33.0793L39.0827 26.3622C39.3058 26.1285 39.3058 25.7257 39.0827 25.4921L32.7788 18.77C32.5688 18.5462 32.2363 18.5562 32.0351 18.7948L30.1321 21.1018C29.9309 21.3454 29.944 21.7333 30.1671 21.957L34.1306 25.9246L30.1671 29.8873C29.944 30.111 29.9265 30.4988 30.1321 30.7425L32.0351 33.0494C32.232 33.2931 32.5644 33.303 32.7788 33.0793Z" fill="white"/>
</g>
<defs>
<clipPath id="clip0_11_9240">
<rect width="28" height="28" fill="white" transform="translate(11.25 11.9258)"/>
</clipPath>
</defs>
</svg>
