<svg width="23" height="24" viewBox="0 0 23 24" fill="none" xmlns="http://www.w3.org/2000/svg">
<path d="M11.8962 0.880859C5.7876 0.880859 0.818604 5.8494 0.818604 11.9575C0.818604 18.0658 5.7876 23.035 11.8962 23.035C18.0038 23.035 22.9728 18.0658 22.9728 11.9575C22.9728 5.85009 18.0038 0.880859 11.8962 0.880859ZM2.08995 11.9575C2.08995 10.5361 2.39519 9.1862 2.9392 7.96738L7.61671 20.7823C4.34576 19.1932 2.08995 15.8392 2.08995 11.9575ZM11.8962 21.7639C10.9335 21.7639 10.0045 21.6219 9.1257 21.3643L12.0676 12.8156L15.0826 21.0724C15.1018 21.1207 15.1259 21.1654 15.1522 21.2076C14.1332 21.5664 13.0376 21.7639 11.8962 21.7639ZM13.247 7.36038C13.8374 7.32921 14.369 7.26666 14.369 7.26666C14.8977 7.20433 14.8358 6.42822 14.3069 6.45938C14.3069 6.45938 12.7184 6.58381 11.6934 6.58381C10.7302 6.58381 9.11034 6.45938 9.11034 6.45938C8.58214 6.42822 8.52073 7.23618 9.04847 7.26666C9.04847 7.26666 9.54872 7.32898 10.0765 7.36038L11.6042 11.5459L9.45866 17.9819L5.8882 7.36084C6.47919 7.32967 7.0106 7.26734 7.0106 7.26734C7.53834 7.20502 7.4767 6.42845 6.94758 6.46007C6.94758 6.46007 5.35977 6.58426 4.33407 6.58426C4.14937 6.58426 3.93328 6.57945 3.70321 6.57235C5.45578 3.90992 8.47009 2.15238 11.8962 2.15238C14.4494 2.15238 16.7733 3.12854 18.5178 4.72613C18.475 4.72407 18.4344 4.71857 18.3904 4.71857C17.4275 4.71857 16.7435 5.55747 16.7435 6.45892C16.7435 7.26666 17.2089 7.95065 17.7066 8.75816C18.0799 9.41191 18.5149 10.2508 18.5149 11.4628C18.5149 12.3021 18.1927 13.2762 17.7687 14.6325L16.7907 17.9008L13.247 7.36038ZM16.8255 20.4328L19.8206 11.7735C20.3809 10.3748 20.5663 9.25609 20.5663 8.26114C20.5663 7.9007 20.5424 7.565 20.5003 7.25291C21.2668 8.64954 21.7022 10.2526 21.7017 11.9577C21.7017 15.575 19.7404 18.733 16.8255 20.4328Z" fill="#9CA0AC"/>
</svg>
